%TF.GenerationSoftware,KiCad,Pcbnew,(5.1.10)-1*%
%TF.CreationDate,2022-04-20T23:12:05+01:00*%
%TF.ProjectId,EV_Charger2,45565f43-6861-4726-9765-72322e6b6963,rev?*%
%TF.SameCoordinates,Original*%
%TF.FileFunction,Copper,L1,Top*%
%TF.FilePolarity,Positive*%
%FSLAX46Y46*%
G04 Gerber Fmt 4.6, Leading zero omitted, Abs format (unit mm)*
G04 Created by KiCad (PCBNEW (5.1.10)-1) date 2022-04-20 23:12:05*
%MOMM*%
%LPD*%
G01*
G04 APERTURE LIST*
%TA.AperFunction,ComponentPad*%
%ADD10R,1.600000X1.600000*%
%TD*%
%TA.AperFunction,ComponentPad*%
%ADD11O,1.600000X1.600000*%
%TD*%
%TA.AperFunction,ComponentPad*%
%ADD12C,1.600000*%
%TD*%
%TA.AperFunction,ComponentPad*%
%ADD13O,2.670000X5.340000*%
%TD*%
%TA.AperFunction,ComponentPad*%
%ADD14O,5.850000X2.925000*%
%TD*%
%TA.AperFunction,ComponentPad*%
%ADD15C,1.635000*%
%TD*%
%TA.AperFunction,ComponentPad*%
%ADD16C,1.000000*%
%TD*%
%TA.AperFunction,ComponentPad*%
%ADD17R,1.000000X1.000000*%
%TD*%
%TA.AperFunction,ComponentPad*%
%ADD18R,1.620000X1.620000*%
%TD*%
%TA.AperFunction,ComponentPad*%
%ADD19C,1.620000*%
%TD*%
%TA.AperFunction,ComponentPad*%
%ADD20C,2.350000*%
%TD*%
%TA.AperFunction,ComponentPad*%
%ADD21C,1.130000*%
%TD*%
%TA.AperFunction,ComponentPad*%
%ADD22R,1.130000X1.130000*%
%TD*%
%TA.AperFunction,ComponentPad*%
%ADD23O,1.700000X1.700000*%
%TD*%
%TA.AperFunction,ComponentPad*%
%ADD24R,1.700000X1.700000*%
%TD*%
%TA.AperFunction,ComponentPad*%
%ADD25C,4.500880*%
%TD*%
%TA.AperFunction,ComponentPad*%
%ADD26R,1.800000X1.800000*%
%TD*%
%TA.AperFunction,ComponentPad*%
%ADD27O,1.800000X1.800000*%
%TD*%
%TA.AperFunction,ComponentPad*%
%ADD28C,1.879600*%
%TD*%
%TA.AperFunction,ComponentPad*%
%ADD29C,2.030000*%
%TD*%
%TA.AperFunction,ComponentPad*%
%ADD30R,2.030000X2.030000*%
%TD*%
%TA.AperFunction,ComponentPad*%
%ADD31R,1.200000X1.200000*%
%TD*%
%TA.AperFunction,ComponentPad*%
%ADD32C,1.200000*%
%TD*%
%TA.AperFunction,ViaPad*%
%ADD33C,0.800000*%
%TD*%
%TA.AperFunction,Conductor*%
%ADD34C,1.000000*%
%TD*%
%TA.AperFunction,Conductor*%
%ADD35C,0.254000*%
%TD*%
%TA.AperFunction,Conductor*%
%ADD36C,0.100000*%
%TD*%
G04 APERTURE END LIST*
D10*
%TO.P,D7,1*%
%TO.N,+12V*%
X203000000Y-24000000D03*
D11*
%TO.P,D7,2*%
%TO.N,Net-(D7-Pad2)*%
X210620000Y-24000000D03*
%TD*%
D12*
%TO.P,R12,1*%
%TO.N,/GFCI*%
X235750000Y-37750000D03*
D11*
%TO.P,R12,2*%
%TO.N,Net-(D4-Pad1)*%
X235750000Y-47910000D03*
%TD*%
D12*
%TO.P,R11,1*%
%TO.N,-15V*%
X165750000Y-69250000D03*
D11*
%TO.P,R11,2*%
%TO.N,+15V*%
X180990000Y-69250000D03*
%TD*%
D13*
%TO.P,K1,3*%
%TO.N,/N_Out*%
X181875000Y-95000000D03*
D14*
%TO.P,K1,4*%
%TO.N,/N_In*%
X163125000Y-98430000D03*
D15*
%TO.P,K1,2*%
%TO.N,Net-(D5-Pad2)*%
X177095000Y-82990000D03*
%TO.P,K1,1*%
%TO.N,Net-(C4-Pad1)*%
X166935000Y-82990000D03*
%TD*%
D12*
%TO.P,R14,1*%
%TO.N,Net-(C5-Pad1)*%
X186750000Y-66040000D03*
D11*
%TO.P,R14,2*%
%TO.N,+15V*%
X186750000Y-50800000D03*
%TD*%
D12*
%TO.P,R13,1*%
%TO.N,Net-(C4-Pad1)*%
X193548000Y-66040000D03*
D11*
%TO.P,R13,2*%
%TO.N,+15V*%
X193548000Y-50800000D03*
%TD*%
D16*
%TO.P,Q2,2*%
%TO.N,Net-(Q2-Pad2)*%
X189230000Y-85020000D03*
%TO.P,Q2,3*%
%TO.N,Earth*%
X187960000Y-86290000D03*
D17*
%TO.P,Q2,1*%
%TO.N,Net-(D6-Pad2)*%
X187960000Y-83750000D03*
%TD*%
D12*
%TO.P,R17,1*%
%TO.N,-12V*%
X184250000Y-47500000D03*
D11*
%TO.P,R17,2*%
%TO.N,Earth*%
X194410000Y-47500000D03*
%TD*%
D12*
%TO.P,R3,1*%
%TO.N,Earth*%
X184250000Y-43250000D03*
D11*
%TO.P,R3,2*%
%TO.N,+12V*%
X194410000Y-43250000D03*
%TD*%
D18*
%TO.P,RV2,1*%
%TO.N,Net-(R19-Pad1)*%
X160460000Y-22500000D03*
D19*
%TO.P,RV2,2*%
%TO.N,Earth*%
X163000000Y-22500000D03*
%TO.P,RV2,3*%
X165540000Y-22500000D03*
%TD*%
D18*
%TO.P,RV1,1*%
%TO.N,Net-(R18-Pad1)*%
X182960000Y-22500000D03*
D19*
%TO.P,RV1,2*%
%TO.N,Earth*%
X185500000Y-22500000D03*
%TO.P,RV1,3*%
X188040000Y-22500000D03*
%TD*%
D20*
%TO.P,F1,2*%
%TO.N,/L_In*%
X131180000Y-72500000D03*
X131180000Y-67420000D03*
%TO.P,F1,1*%
%TO.N,Net-(F1-Pad1)*%
X146500000Y-72500000D03*
X146500000Y-67420000D03*
%TD*%
D21*
%TO.P,U3,8*%
%TO.N,+12V*%
X229490000Y-68445000D03*
%TO.P,U3,7*%
%TO.N,Net-(D3-Pad1)*%
X229490000Y-70985000D03*
%TO.P,U3,6*%
%TO.N,Net-(D3-Pad2)*%
X229490000Y-73525000D03*
%TO.P,U3,5*%
%TO.N,Earth*%
X229490000Y-76065000D03*
%TO.P,U3,4*%
%TO.N,-12V*%
X221550000Y-76065000D03*
%TO.P,U3,3*%
%TO.N,Net-(R5-Pad1)*%
X221550000Y-73525000D03*
%TO.P,U3,2*%
%TO.N,/PWM*%
X221550000Y-70985000D03*
D22*
%TO.P,U3,1*%
%TO.N,Net-(R8-Pad1)*%
X221550000Y-68445000D03*
%TD*%
D23*
%TO.P,J3,2*%
%TO.N,Earth*%
X220540000Y-112000000D03*
D24*
%TO.P,J3,1*%
%TO.N,Net-(J3-Pad1)*%
X218000000Y-112000000D03*
%TD*%
D25*
%TO.P,GND,1*%
%TO.N,Earth*%
X208000000Y-112000000D03*
%TD*%
%TO.P,GND,1*%
%TO.N,Earth*%
X193000000Y-112000000D03*
%TD*%
%TO.P,N Out,1*%
%TO.N,/N_Out*%
X178000000Y-112000000D03*
%TD*%
%TO.P,N In,1*%
%TO.N,/N_In*%
X163000000Y-112000000D03*
%TD*%
%TO.P,L Out,1*%
%TO.N,/L_Out*%
X148000000Y-112000000D03*
%TD*%
%TO.P,L In,1*%
%TO.N,/L_In*%
X133000000Y-112000000D03*
%TD*%
D12*
%TO.P,R20,1*%
%TO.N,/PWM_Read*%
X195580000Y-92710000D03*
D11*
%TO.P,R20,2*%
%TO.N,+5V*%
X205740000Y-92710000D03*
%TD*%
D12*
%TO.P,R19,1*%
%TO.N,Net-(R19-Pad1)*%
X147755000Y-22115000D03*
D11*
%TO.P,R19,2*%
%TO.N,-12V*%
X147755000Y-32275000D03*
%TD*%
D12*
%TO.P,R18,1*%
%TO.N,Net-(R18-Pad1)*%
X169980000Y-22115000D03*
D11*
%TO.P,R18,2*%
%TO.N,+12V*%
X169980000Y-32275000D03*
%TD*%
D24*
%TO.P,J2,1*%
%TO.N,Earth*%
X195000000Y-38000000D03*
D23*
%TO.P,J2,2*%
%TO.N,Net-(J2-Pad2)*%
X195000000Y-35460000D03*
%TO.P,J2,3*%
%TO.N,Net-(J2-Pad3)*%
X195000000Y-32920000D03*
%TO.P,J2,4*%
%TO.N,Net-(J2-Pad4)*%
X195000000Y-30380000D03*
%TD*%
D10*
%TO.P,C9,1*%
%TO.N,Earth*%
X164265000Y-27830000D03*
D12*
%TO.P,C9,2*%
%TO.N,-12V*%
X164265000Y-30330000D03*
%TD*%
D10*
%TO.P,C8,1*%
%TO.N,+12V*%
X185220000Y-29735000D03*
D12*
%TO.P,C8,2*%
%TO.N,Earth*%
X185220000Y-27235000D03*
%TD*%
%TO.P,C7,1*%
%TO.N,-15V*%
X159185000Y-34180000D03*
%TO.P,C7,2*%
%TO.N,Earth*%
X161685000Y-34180000D03*
%TD*%
%TO.P,C6,1*%
%TO.N,Earth*%
X183950000Y-33545000D03*
%TO.P,C6,2*%
%TO.N,+15V*%
X181450000Y-33545000D03*
%TD*%
D26*
%TO.P,U6,1*%
%TO.N,Net-(R19-Pad1)*%
X157915000Y-29100000D03*
D27*
%TO.P,U6,2*%
%TO.N,-15V*%
X155375000Y-29100000D03*
%TO.P,U6,3*%
%TO.N,-12V*%
X152835000Y-29100000D03*
%TD*%
D26*
%TO.P,U5,1*%
%TO.N,Net-(R18-Pad1)*%
X176965000Y-27195000D03*
D27*
%TO.P,U5,2*%
%TO.N,+12V*%
X176965000Y-29735000D03*
%TO.P,U5,3*%
%TO.N,+15V*%
X176965000Y-32275000D03*
%TD*%
D10*
%TO.P,TVS1,1*%
%TO.N,Net-(J3-Pad1)*%
X203200000Y-106585000D03*
D11*
%TO.P,TVS1,2*%
%TO.N,Earth*%
X203200000Y-96425000D03*
%TD*%
D12*
%TO.P,R16,1*%
%TO.N,Net-(Q2-Pad2)*%
X194310000Y-86995000D03*
D11*
%TO.P,R16,2*%
%TO.N,/Relay_2_Drive*%
X194310000Y-76835000D03*
%TD*%
D12*
%TO.P,R15,1*%
%TO.N,Net-(Q1-Pad2)*%
X198120000Y-86995000D03*
D11*
%TO.P,R15,2*%
%TO.N,/Relay_1_Drive*%
X198120000Y-76835000D03*
%TD*%
D12*
%TO.P,R10,1*%
%TO.N,Earth*%
X191770000Y-106585000D03*
D11*
%TO.P,R10,2*%
%TO.N,/PWM_Read*%
X191770000Y-96425000D03*
%TD*%
D12*
%TO.P,R9,1*%
%TO.N,/PWM_Read*%
X195580000Y-96425000D03*
D11*
%TO.P,R9,2*%
%TO.N,Net-(J3-Pad1)*%
X195580000Y-106585000D03*
%TD*%
D12*
%TO.P,R8,1*%
%TO.N,Net-(R8-Pad1)*%
X199390000Y-96425000D03*
D11*
%TO.P,R8,2*%
%TO.N,Net-(J3-Pad1)*%
X199390000Y-106585000D03*
%TD*%
D12*
%TO.P,R7,1*%
%TO.N,Net-(D4-Pad1)*%
X235750000Y-50665000D03*
D11*
%TO.P,R7,2*%
%TO.N,Net-(D3-Pad2)*%
X235750000Y-60825000D03*
%TD*%
D12*
%TO.P,R6,1*%
%TO.N,Earth*%
X230765000Y-47365000D03*
D11*
%TO.P,R6,2*%
%TO.N,Net-(R5-Pad1)*%
X230765000Y-57525000D03*
%TD*%
D12*
%TO.P,R5,1*%
%TO.N,Net-(R5-Pad1)*%
X226955000Y-57525000D03*
D11*
%TO.P,R5,2*%
%TO.N,+5V*%
X226955000Y-47365000D03*
%TD*%
D12*
%TO.P,R4,1*%
%TO.N,Net-(D3-Pad2)*%
X229465000Y-79500000D03*
D11*
%TO.P,R4,2*%
%TO.N,Net-(C2-Pad1)*%
X219305000Y-79500000D03*
%TD*%
D12*
%TO.P,R2,1*%
%TO.N,Net-(C1-Pad1)*%
X218035000Y-91940000D03*
D11*
%TO.P,R2,2*%
%TO.N,Net-(C1-Pad2)*%
X228195000Y-91940000D03*
%TD*%
D12*
%TO.P,R1,1*%
%TO.N,/GFCI_Test*%
X236500000Y-94500000D03*
D11*
%TO.P,R1,2*%
%TO.N,Net-(J1-Pad4)*%
X236500000Y-104660000D03*
%TD*%
D28*
%TO.P,U1,JP1_1*%
%TO.N,Net-(U1-PadJP1_1)*%
X213350000Y-27760000D03*
%TO.P,U1,JP1_2*%
%TO.N,Net-(U1-PadJP1_2)*%
X210810000Y-27760000D03*
%TO.P,U1,JP1_3*%
%TO.N,Net-(U1-PadJP1_3)*%
X208270000Y-27760000D03*
%TO.P,U1,JP1_4*%
%TO.N,+5V*%
X205730000Y-27760000D03*
%TO.P,U1,JP1_5*%
%TO.N,Earth*%
X203190000Y-27760000D03*
%TO.P,U1,JP1_6*%
X200650000Y-27760000D03*
%TO.P,U1,JP2_1*%
%TO.N,Net-(U1-PadJP2_1)*%
X211699000Y-41603000D03*
%TO.P,U1,JP2_2*%
%TO.N,Net-(U1-PadJP2_2)*%
X211699000Y-39063000D03*
%TO.P,U1,JP3_2*%
%TO.N,Net-(U1-PadJP3_2)*%
X211699000Y-49477000D03*
%TO.P,U1,JP3_1*%
%TO.N,Net-(U1-PadJP3_1)*%
X211699000Y-52017000D03*
%TO.P,U1,JP6_1*%
%TO.N,Net-(D7-Pad2)*%
X214620000Y-30300000D03*
%TO.P,U1,JP6_2*%
%TO.N,Earth*%
X214620000Y-32840000D03*
%TO.P,U1,JP6_3*%
%TO.N,Net-(U1-PadJP6_3)*%
X214620000Y-35380000D03*
%TO.P,U1,JP6_4*%
%TO.N,+5V*%
X214620000Y-37920000D03*
%TO.P,U1,JP6_5*%
%TO.N,Net-(U1-PadJP6_5)*%
X214620000Y-40460000D03*
%TO.P,U1,JP6_6*%
%TO.N,Net-(U1-PadJP6_6)*%
X214620000Y-43000000D03*
%TO.P,U1,JP6_7*%
%TO.N,/PWM_Read*%
X214620000Y-45540000D03*
%TO.P,U1,JP6_8*%
%TO.N,/GFCI*%
X214620000Y-48080000D03*
%TO.P,U1,JP6_9*%
%TO.N,Net-(U1-PadJP6_9)*%
X214620000Y-50620000D03*
%TO.P,U1,JP6_10*%
%TO.N,Net-(U1-PadJP6_10)*%
X214620000Y-53160000D03*
%TO.P,U1,JP6_11*%
%TO.N,/GFCI_Test*%
X214620000Y-55700000D03*
%TO.P,U1,JP6_12*%
%TO.N,/PWM*%
X214620000Y-58240000D03*
%TO.P,U1,JP7_1*%
%TO.N,Net-(U1-PadJP7_1)*%
X199380000Y-58240000D03*
%TO.P,U1,JP7_2*%
%TO.N,/Relay_2_Drive*%
X199380000Y-55700000D03*
%TO.P,U1,JP7_3*%
%TO.N,/Relay_1_Drive*%
X199380000Y-53160000D03*
%TO.P,U1,JP7_4*%
%TO.N,Net-(U1-PadJP7_4)*%
X199380000Y-50620000D03*
%TO.P,U1,JP7_5*%
%TO.N,Net-(U1-PadJP7_5)*%
X199380000Y-48080000D03*
%TO.P,U1,JP7_6*%
%TO.N,Net-(U1-PadJP7_6)*%
X199380000Y-45540000D03*
%TO.P,U1,JP7_7*%
%TO.N,Net-(U1-PadJP7_7)*%
X199380000Y-43000000D03*
%TO.P,U1,JP7_8*%
%TO.N,Net-(U1-PadJP7_8)*%
X199380000Y-40460000D03*
%TO.P,U1,JP7_9*%
%TO.N,Earth*%
X199380000Y-37920000D03*
%TO.P,U1,JP7_10*%
%TO.N,Net-(J2-Pad2)*%
X199380000Y-35380000D03*
%TO.P,U1,JP7_11*%
%TO.N,Net-(J2-Pad3)*%
X199380000Y-32840000D03*
%TO.P,U1,JP7_12*%
%TO.N,Net-(J2-Pad4)*%
X199380000Y-30300000D03*
%TD*%
D29*
%TO.P,PS1,3*%
%TO.N,-15V*%
X176860000Y-61160000D03*
%TO.P,PS1,5*%
%TO.N,+15V*%
X176860000Y-40840000D03*
%TO.P,PS1,4*%
%TO.N,Earth*%
X176860000Y-51000000D03*
%TO.P,PS1,2*%
%TO.N,Net-(F1-Pad1)*%
X131140000Y-61160000D03*
D30*
%TO.P,PS1,1*%
%TO.N,/N_In*%
X131140000Y-40840000D03*
%TD*%
D13*
%TO.P,K2,3*%
%TO.N,/L_Out*%
X151875000Y-95000000D03*
D14*
%TO.P,K2,4*%
%TO.N,/L_In*%
X133125000Y-98430000D03*
D15*
%TO.P,K2,2*%
%TO.N,Net-(C5-Pad1)*%
X147095000Y-82990000D03*
%TO.P,K2,1*%
%TO.N,Net-(D6-Pad2)*%
X136935000Y-82990000D03*
%TD*%
D10*
%TO.P,U2,1*%
%TO.N,Net-(U2-Pad1)*%
X226925000Y-103370000D03*
D11*
%TO.P,U2,5*%
%TO.N,Net-(U2-Pad5)*%
X219305000Y-95750000D03*
%TO.P,U2,2*%
%TO.N,Net-(C1-Pad2)*%
X226925000Y-100830000D03*
%TO.P,U2,6*%
%TO.N,Net-(C1-Pad1)*%
X219305000Y-98290000D03*
%TO.P,U2,3*%
%TO.N,Earth*%
X226925000Y-98290000D03*
%TO.P,U2,7*%
%TO.N,+12V*%
X219305000Y-100830000D03*
%TO.P,U2,4*%
%TO.N,-12V*%
X226925000Y-95750000D03*
%TO.P,U2,8*%
%TO.N,Net-(U2-Pad8)*%
X219305000Y-103370000D03*
%TD*%
D16*
%TO.P,Q1,2*%
%TO.N,Net-(Q1-Pad2)*%
X189230000Y-79375000D03*
%TO.P,Q1,3*%
%TO.N,Earth*%
X187960000Y-80645000D03*
D17*
%TO.P,Q1,1*%
%TO.N,Net-(D5-Pad2)*%
X187960000Y-78105000D03*
%TD*%
D24*
%TO.P,J1,1*%
%TO.N,Earth*%
X228000000Y-112000000D03*
D23*
%TO.P,J1,2*%
%TO.N,Net-(C1-Pad2)*%
X230540000Y-112000000D03*
%TO.P,J1,3*%
%TO.N,Earth*%
X233080000Y-112000000D03*
%TO.P,J1,4*%
%TO.N,Net-(J1-Pad4)*%
X235620000Y-112000000D03*
%TD*%
D10*
%TO.P,D6,1*%
%TO.N,Net-(C5-Pad1)*%
X156210000Y-78750000D03*
D11*
%TO.P,D6,2*%
%TO.N,Net-(D6-Pad2)*%
X156210000Y-86370000D03*
%TD*%
D10*
%TO.P,D5,1*%
%TO.N,Net-(C4-Pad1)*%
X159250000Y-76250000D03*
D11*
%TO.P,D5,2*%
%TO.N,Net-(D5-Pad2)*%
X159250000Y-83870000D03*
%TD*%
D10*
%TO.P,D4,1*%
%TO.N,Net-(D4-Pad1)*%
X232505000Y-63365000D03*
D11*
%TO.P,D4,2*%
%TO.N,Net-(D3-Pad1)*%
X232505000Y-70985000D03*
%TD*%
D10*
%TO.P,D3,1*%
%TO.N,Net-(D3-Pad1)*%
X235680000Y-70985000D03*
D11*
%TO.P,D3,2*%
%TO.N,Net-(D3-Pad2)*%
X235680000Y-63365000D03*
%TD*%
D10*
%TO.P,D2,1*%
%TO.N,Net-(C1-Pad2)*%
X231250000Y-90820000D03*
D11*
%TO.P,D2,2*%
%TO.N,Earth*%
X231250000Y-83200000D03*
%TD*%
D10*
%TO.P,D1,1*%
%TO.N,Earth*%
X234250000Y-83200000D03*
D11*
%TO.P,D1,2*%
%TO.N,Net-(C1-Pad2)*%
X234250000Y-90820000D03*
%TD*%
D10*
%TO.P,C5,1*%
%TO.N,Net-(C5-Pad1)*%
X186690000Y-70485000D03*
D12*
%TO.P,C5,2*%
%TO.N,Earth*%
X184190000Y-70485000D03*
%TD*%
D10*
%TO.P,C4,1*%
%TO.N,Net-(C4-Pad1)*%
X193675000Y-70485000D03*
D12*
%TO.P,C4,2*%
%TO.N,Earth*%
X191175000Y-70485000D03*
%TD*%
D31*
%TO.P,C3,1*%
%TO.N,/GFCI*%
X230500000Y-41000000D03*
D32*
%TO.P,C3,2*%
%TO.N,Earth*%
X229000000Y-41000000D03*
%TD*%
D12*
%TO.P,C2,1*%
%TO.N,Net-(C2-Pad1)*%
X219305000Y-85590000D03*
%TO.P,C2,2*%
%TO.N,Net-(C1-Pad1)*%
X219305000Y-88090000D03*
%TD*%
%TO.P,C1,1*%
%TO.N,Net-(C1-Pad1)*%
X226000000Y-88130000D03*
%TO.P,C1,2*%
%TO.N,Net-(C1-Pad2)*%
X228500000Y-88130000D03*
%TD*%
D33*
%TO.N,+5V*%
X220000000Y-64000000D03*
X222500000Y-61500000D03*
%TO.N,+12V*%
X214500000Y-94000000D03*
X218000000Y-83000000D03*
X199000000Y-66500000D03*
%TO.N,-12V*%
X223000000Y-90500000D03*
X222500000Y-80000000D03*
X197750000Y-70250000D03*
%TO.N,/GFCI*%
X223750000Y-44000000D03*
%TO.N,/GFCI_Test*%
X237500000Y-77000000D03*
X234000000Y-53500000D03*
X225500000Y-53500000D03*
X219500000Y-53500000D03*
%TO.N,/PWM_Read*%
X218500000Y-62500000D03*
X221000000Y-60000000D03*
%TO.N,+15V*%
X172500000Y-46250000D03*
%TD*%
D34*
%TO.N,Net-(C1-Pad1)*%
X218035000Y-91940000D02*
X219940000Y-91940000D01*
X219940000Y-91940000D02*
X222480000Y-94480000D01*
X222480000Y-94480000D02*
X222480000Y-97020000D01*
X221210000Y-98290000D02*
X222480000Y-97020000D01*
X219305000Y-98290000D02*
X221210000Y-98290000D01*
X219345000Y-88130000D02*
X219305000Y-88090000D01*
X226000000Y-88130000D02*
X219345000Y-88130000D01*
X219305000Y-90670000D02*
X218035000Y-91940000D01*
X219305000Y-88090000D02*
X219305000Y-90670000D01*
%TO.N,Net-(C1-Pad2)*%
X230540000Y-109540000D02*
X230540000Y-112000000D01*
X229465000Y-108465000D02*
X230540000Y-109540000D01*
X228195000Y-91940000D02*
X229465000Y-93210000D01*
X228330000Y-100830000D02*
X229465000Y-101965000D01*
X226925000Y-100830000D02*
X228330000Y-100830000D01*
X229465000Y-101965000D02*
X229465000Y-108465000D01*
X229465000Y-93210000D02*
X229465000Y-101965000D01*
X234250000Y-90820000D02*
X231250000Y-90820000D01*
X231250000Y-91425000D02*
X229465000Y-93210000D01*
X231250000Y-90820000D02*
X231250000Y-91425000D01*
X228500000Y-91635000D02*
X228195000Y-91940000D01*
X228500000Y-88130000D02*
X228500000Y-91635000D01*
%TO.N,Earth*%
X184150000Y-70445000D02*
X184190000Y-70485000D01*
X229465000Y-76090000D02*
X229490000Y-76065000D01*
%TO.N,Net-(C4-Pad1)*%
X193675000Y-66167000D02*
X193548000Y-66040000D01*
X193675000Y-70485000D02*
X193675000Y-66167000D01*
X193675000Y-72825000D02*
X190500000Y-76000000D01*
X193675000Y-70485000D02*
X193675000Y-72825000D01*
X173925000Y-76000000D02*
X166935000Y-82990000D01*
X190500000Y-76000000D02*
X173925000Y-76000000D01*
X160195000Y-76250000D02*
X159250000Y-76250000D01*
X166935000Y-82990000D02*
X160195000Y-76250000D01*
%TO.N,Net-(D3-Pad1)*%
X229490000Y-70985000D02*
X232505000Y-70985000D01*
X235680000Y-70985000D02*
X232505000Y-70985000D01*
%TO.N,Net-(D5-Pad2)*%
X181980000Y-78105000D02*
X177095000Y-82990000D01*
X187960000Y-78105000D02*
X181980000Y-78105000D01*
X177095000Y-82990000D02*
X170510000Y-82990000D01*
X170510000Y-82990000D02*
X168500000Y-85000000D01*
X160380000Y-85000000D02*
X159250000Y-83870000D01*
X168500000Y-85000000D02*
X160380000Y-85000000D01*
%TO.N,Net-(J1-Pad4)*%
X235620000Y-105540000D02*
X236500000Y-104660000D01*
X235620000Y-112000000D02*
X235620000Y-105540000D01*
%TO.N,Net-(Q1-Pad2)*%
X189230000Y-79375000D02*
X191135000Y-79375000D01*
X198120000Y-86360000D02*
X198120000Y-86995000D01*
X191135000Y-79375000D02*
X198120000Y-86360000D01*
%TO.N,Net-(Q2-Pad2)*%
X191205000Y-86995000D02*
X189230000Y-85020000D01*
X194310000Y-86995000D02*
X191205000Y-86995000D01*
%TO.N,+5V*%
X205740000Y-92710000D02*
X209790000Y-92710000D01*
X209790000Y-92710000D02*
X214000000Y-88500000D01*
X214000000Y-88500000D02*
X214000000Y-71500000D01*
X214620000Y-37920000D02*
X213920000Y-37920000D01*
X205730000Y-29730000D02*
X205730000Y-27760000D01*
X213920000Y-37920000D02*
X205730000Y-29730000D01*
X214620000Y-37920000D02*
X223500000Y-46800000D01*
X224065000Y-47365000D02*
X223500000Y-46800000D01*
X226955000Y-47365000D02*
X224065000Y-47365000D01*
X214000000Y-71500000D02*
X214000000Y-70000000D01*
X214000000Y-70000000D02*
X220000000Y-64000000D01*
X223500000Y-50820000D02*
X223500000Y-46800000D01*
X223500000Y-60500000D02*
X223500000Y-50820000D01*
X222500000Y-61500000D02*
X223500000Y-60500000D01*
%TO.N,Net-(R5-Pad1)*%
X230765000Y-57525000D02*
X226955000Y-57525000D01*
X225500000Y-58980000D02*
X226955000Y-57525000D01*
X225500000Y-69575000D02*
X225500000Y-58980000D01*
X221550000Y-73525000D02*
X225500000Y-69575000D01*
%TO.N,Net-(R8-Pad1)*%
X199390000Y-96425000D02*
X199390000Y-97890000D01*
X199390000Y-97890000D02*
X201000000Y-99500000D01*
X201000000Y-99500000D02*
X206000000Y-99500000D01*
X206000000Y-99500000D02*
X216000000Y-89500000D01*
X216000000Y-89500000D02*
X216000000Y-72000000D01*
X219555000Y-68445000D02*
X221550000Y-68445000D01*
X216000000Y-72000000D02*
X219555000Y-68445000D01*
%TO.N,+12V*%
X172520000Y-29735000D02*
X169980000Y-32275000D01*
X176965000Y-29735000D02*
X172520000Y-29735000D01*
X176965000Y-29735000D02*
X185220000Y-29735000D01*
X185220000Y-29735000D02*
X186235000Y-29735000D01*
X219305000Y-100830000D02*
X217830000Y-100830000D01*
X217830000Y-100830000D02*
X214500000Y-97500000D01*
X214500000Y-97500000D02*
X214500000Y-94000000D01*
X218000000Y-83000000D02*
X224500000Y-83000000D01*
X224500000Y-73435000D02*
X229490000Y-68445000D01*
X224500000Y-83000000D02*
X224500000Y-73435000D01*
X195000000Y-24000000D02*
X188000000Y-31000000D01*
X186735000Y-29735000D02*
X188000000Y-31000000D01*
X185220000Y-29735000D02*
X186735000Y-29735000D01*
X199000000Y-66500000D02*
X199000000Y-62750000D01*
X199000000Y-62750000D02*
X196750000Y-60500000D01*
X196750000Y-45590000D02*
X194410000Y-43250000D01*
X196750000Y-60500000D02*
X196750000Y-45590000D01*
X188000000Y-36840000D02*
X194410000Y-43250000D01*
X188000000Y-31000000D02*
X188000000Y-36840000D01*
X195000000Y-24000000D02*
X203000000Y-24000000D01*
%TO.N,-12V*%
X150930000Y-29100000D02*
X147755000Y-32275000D01*
X152835000Y-29100000D02*
X150930000Y-29100000D01*
X226925000Y-95750000D02*
X226925000Y-94425000D01*
X226925000Y-94425000D02*
X223000000Y-90500000D01*
X222500000Y-77015000D02*
X221550000Y-76065000D01*
X222500000Y-80000000D02*
X222500000Y-77015000D01*
X164265000Y-31765000D02*
X164265000Y-30330000D01*
X164265000Y-33765000D02*
X164265000Y-31765000D01*
X178000000Y-47500000D02*
X164265000Y-33765000D01*
X184250000Y-47500000D02*
X178000000Y-47500000D01*
X197750000Y-70250000D02*
X196500000Y-69000000D01*
X196500000Y-69000000D02*
X196500000Y-64000000D01*
X184250000Y-51750000D02*
X184250000Y-47500000D01*
X196500000Y-64000000D02*
X184250000Y-51750000D01*
%TO.N,/GFCI*%
X233750000Y-37750000D02*
X230500000Y-41000000D01*
X235750000Y-37750000D02*
X233750000Y-37750000D01*
X229100000Y-44000000D02*
X230500000Y-42600000D01*
X230500000Y-42600000D02*
X230500000Y-41000000D01*
X223750000Y-44000000D02*
X229100000Y-44000000D01*
%TO.N,Net-(J2-Pad2)*%
X199300000Y-35460000D02*
X199380000Y-35380000D01*
X195000000Y-35460000D02*
X199300000Y-35460000D01*
%TO.N,Net-(J2-Pad3)*%
X195080000Y-32840000D02*
X195000000Y-32920000D01*
X199380000Y-32840000D02*
X195080000Y-32840000D01*
%TO.N,Net-(J2-Pad4)*%
X199300000Y-30380000D02*
X199380000Y-30300000D01*
X195000000Y-30380000D02*
X199300000Y-30380000D01*
%TO.N,/GFCI_Test*%
X236500000Y-94500000D02*
X236500000Y-78000000D01*
X236500000Y-78000000D02*
X237500000Y-77000000D01*
X234000000Y-53500000D02*
X225500000Y-53500000D01*
X217300000Y-55700000D02*
X219500000Y-53500000D01*
X214620000Y-55700000D02*
X217300000Y-55700000D01*
%TO.N,Net-(R18-Pad1)*%
X169980000Y-22115000D02*
X174615000Y-22115000D01*
X176965000Y-24465000D02*
X176965000Y-27195000D01*
X174615000Y-22115000D02*
X176965000Y-24465000D01*
X178930000Y-22500000D02*
X176965000Y-24465000D01*
X182960000Y-22500000D02*
X178930000Y-22500000D01*
%TO.N,/PWM_Read*%
X191770000Y-96425000D02*
X195580000Y-96425000D01*
X195580000Y-92710000D02*
X195580000Y-96425000D01*
X195580000Y-92710000D02*
X198790000Y-92710000D01*
X198790000Y-92710000D02*
X202000000Y-89500000D01*
X202000000Y-89500000D02*
X209500000Y-89500000D01*
X209500000Y-89500000D02*
X212000000Y-87000000D01*
X212000000Y-87000000D02*
X212000000Y-80500000D01*
X212000000Y-69000000D02*
X218500000Y-62500000D01*
X212000000Y-80500000D02*
X212000000Y-69000000D01*
X221000000Y-60000000D02*
X221500000Y-59500000D01*
X214620000Y-45540000D02*
X219040000Y-45540000D01*
X221500000Y-48000000D02*
X221500000Y-59500000D01*
X219040000Y-45540000D02*
X221500000Y-48000000D01*
%TO.N,/Relay_2_Drive*%
X194310000Y-76360000D02*
X194310000Y-76835000D01*
X201700000Y-68970000D02*
X194310000Y-76360000D01*
X201700000Y-55700000D02*
X201700000Y-68970000D01*
X199380000Y-55700000D02*
X201700000Y-55700000D01*
%TO.N,/Relay_1_Drive*%
X202160000Y-53160000D02*
X199380000Y-53160000D01*
X202160000Y-53160000D02*
X202410000Y-53160000D01*
X198120000Y-76835000D02*
X204750000Y-70205000D01*
X204750000Y-55500000D02*
X202410000Y-53160000D01*
X204750000Y-70205000D02*
X204750000Y-55500000D01*
%TO.N,/PWM*%
X223500000Y-69035000D02*
X221550000Y-70985000D01*
X223500000Y-65000000D02*
X223500000Y-69035000D01*
X216740000Y-58240000D02*
X223500000Y-65000000D01*
X214620000Y-58240000D02*
X216740000Y-58240000D01*
%TO.N,Net-(D3-Pad2)*%
X235680000Y-67680000D02*
X237500000Y-69500000D01*
X235680000Y-67680000D02*
X235680000Y-63365000D01*
X237500000Y-69474998D02*
X237500000Y-73000000D01*
X235680000Y-63365000D02*
X235680000Y-60825000D01*
X236975000Y-73525000D02*
X237500000Y-73000000D01*
X229465000Y-79500000D02*
X231500000Y-79500000D01*
X233475000Y-77525000D02*
X233475000Y-73525000D01*
X231500000Y-79500000D02*
X233475000Y-77525000D01*
X233475000Y-73525000D02*
X236975000Y-73525000D01*
X229490000Y-73525000D02*
X233475000Y-73525000D01*
%TO.N,Net-(J3-Pad1)*%
X195580000Y-106585000D02*
X199390000Y-106585000D01*
X199390000Y-106585000D02*
X203200000Y-106585000D01*
X203200000Y-106585000D02*
X203200000Y-104800000D01*
X203200000Y-104800000D02*
X208000000Y-100000000D01*
X208000000Y-100000000D02*
X212000000Y-100000000D01*
X212000000Y-100000000D02*
X216000000Y-104000000D01*
X216000000Y-110000000D02*
X218000000Y-112000000D01*
X216000000Y-104000000D02*
X216000000Y-110000000D01*
%TO.N,/L_In*%
X133125000Y-98430000D02*
X133125000Y-97565000D01*
X131180000Y-67420000D02*
X131180000Y-72500000D01*
X131180000Y-96485000D02*
X133125000Y-98430000D01*
X131180000Y-72500000D02*
X131180000Y-96485000D01*
%TO.N,/N_In*%
X157500000Y-119500000D02*
X163000000Y-114000000D01*
X125500000Y-119500000D02*
X157500000Y-119500000D01*
X124000000Y-118000000D02*
X125500000Y-119500000D01*
X124000000Y-55480000D02*
X124000000Y-118000000D01*
X131140000Y-48340000D02*
X124000000Y-55480000D01*
X131140000Y-40840000D02*
X131140000Y-48340000D01*
%TO.N,Net-(F1-Pad1)*%
X146500000Y-72500000D02*
X146500000Y-67420000D01*
X140240000Y-61160000D02*
X146500000Y-67420000D01*
X131140000Y-61160000D02*
X140240000Y-61160000D01*
%TO.N,Net-(R19-Pad1)*%
X150295000Y-22115000D02*
X154105000Y-22115000D01*
X157915000Y-25925000D02*
X157915000Y-29100000D01*
X154105000Y-22115000D02*
X157915000Y-25925000D01*
X150295000Y-22115000D02*
X147755000Y-22115000D01*
X160460000Y-23380000D02*
X157915000Y-25925000D01*
X160460000Y-22500000D02*
X160460000Y-23380000D01*
%TO.N,+15V*%
X180180000Y-32275000D02*
X181450000Y-33545000D01*
X176965000Y-32275000D02*
X180180000Y-32275000D01*
X181450000Y-33545000D02*
X181450000Y-35490000D01*
X181450000Y-36250000D02*
X181450000Y-35490000D01*
X176860000Y-40840000D02*
X181450000Y-36250000D01*
X193548000Y-50800000D02*
X186750000Y-50800000D01*
X181450000Y-36250000D02*
X181500000Y-36250000D01*
X186750000Y-41500000D02*
X186750000Y-50800000D01*
X181500000Y-36250000D02*
X186750000Y-41500000D01*
X180990000Y-58990000D02*
X180990000Y-69250000D01*
X178750000Y-56750000D02*
X180990000Y-58990000D01*
X174750000Y-56750000D02*
X178750000Y-56750000D01*
X172500000Y-54500000D02*
X174750000Y-56750000D01*
X172500000Y-46250000D02*
X172500000Y-54500000D01*
%TO.N,-15V*%
X155375000Y-29100000D02*
X155375000Y-31640000D01*
X157915000Y-34180000D02*
X159185000Y-34180000D01*
X155375000Y-31640000D02*
X157915000Y-34180000D01*
X159185000Y-47185000D02*
X159185000Y-34180000D01*
X173160000Y-61160000D02*
X159185000Y-47185000D01*
X176860000Y-61160000D02*
X173160000Y-61160000D01*
X176860000Y-60630000D02*
X176860000Y-61160000D01*
X173160000Y-61840000D02*
X165750000Y-69250000D01*
X173160000Y-61160000D02*
X173160000Y-61840000D01*
%TO.N,Net-(C5-Pad1)*%
X151970000Y-82990000D02*
X156210000Y-78750000D01*
X147095000Y-82990000D02*
X151970000Y-82990000D01*
X186690000Y-70485000D02*
X186690000Y-72310000D01*
X186690000Y-72310000D02*
X185250000Y-73750000D01*
X185250000Y-73750000D02*
X158500000Y-73750000D01*
X156210000Y-76040000D02*
X156210000Y-78750000D01*
X158500000Y-73750000D02*
X156210000Y-76040000D01*
X186690000Y-66100000D02*
X186750000Y-66040000D01*
X186690000Y-70485000D02*
X186690000Y-66100000D01*
%TO.N,Net-(D6-Pad2)*%
X140315000Y-86370000D02*
X156210000Y-86370000D01*
X136935000Y-82990000D02*
X140315000Y-86370000D01*
X187960000Y-83750000D02*
X179500000Y-83750000D01*
X176880000Y-86370000D02*
X179500000Y-83750000D01*
X156210000Y-86370000D02*
X176880000Y-86370000D01*
%TO.N,Net-(D4-Pad1)*%
X235750000Y-50665000D02*
X235750000Y-47910000D01*
X232505000Y-59995000D02*
X232505000Y-63365000D01*
X235750000Y-56750000D02*
X232505000Y-59995000D01*
X235750000Y-50665000D02*
X235750000Y-56750000D01*
%TO.N,Net-(D7-Pad2)*%
X214620000Y-30300000D02*
X217500000Y-27420000D01*
X217500000Y-27420000D02*
X217500000Y-25500000D01*
X217500000Y-25500000D02*
X216000000Y-24000000D01*
X216000000Y-24000000D02*
X210620000Y-24000000D01*
%TD*%
D35*
%TO.N,/L_In*%
X136873000Y-115373000D02*
X129127000Y-115373000D01*
X129127000Y-95627000D01*
X136873000Y-95627000D01*
X136873000Y-115373000D01*
%TA.AperFunction,Conductor*%
D36*
G36*
X136873000Y-115373000D02*
G01*
X129127000Y-115373000D01*
X129127000Y-95627000D01*
X136873000Y-95627000D01*
X136873000Y-115373000D01*
G37*
%TD.AperFunction*%
%TD*%
D35*
%TO.N,/N_In*%
X166873000Y-115373000D02*
X159127000Y-115373000D01*
X159127000Y-95627000D01*
X166873000Y-95627000D01*
X166873000Y-115373000D01*
%TA.AperFunction,Conductor*%
D36*
G36*
X166873000Y-115373000D02*
G01*
X159127000Y-115373000D01*
X159127000Y-95627000D01*
X166873000Y-95627000D01*
X166873000Y-115373000D01*
G37*
%TD.AperFunction*%
%TD*%
D35*
%TO.N,/L_Out*%
X154873000Y-102947394D02*
X151910197Y-105910197D01*
X151894403Y-105929443D01*
X151882667Y-105951399D01*
X151875440Y-105975224D01*
X151873000Y-106000000D01*
X151873000Y-114873000D01*
X144127000Y-114873000D01*
X144127000Y-103552606D01*
X148089803Y-99589803D01*
X148105597Y-99570557D01*
X148117333Y-99548601D01*
X148124560Y-99524776D01*
X148127000Y-99500000D01*
X148127000Y-92127000D01*
X154873000Y-92127000D01*
X154873000Y-102947394D01*
%TA.AperFunction,Conductor*%
D36*
G36*
X154873000Y-102947394D02*
G01*
X151910197Y-105910197D01*
X151894403Y-105929443D01*
X151882667Y-105951399D01*
X151875440Y-105975224D01*
X151873000Y-106000000D01*
X151873000Y-114873000D01*
X144127000Y-114873000D01*
X144127000Y-103552606D01*
X148089803Y-99589803D01*
X148105597Y-99570557D01*
X148117333Y-99548601D01*
X148124560Y-99524776D01*
X148127000Y-99500000D01*
X148127000Y-92127000D01*
X154873000Y-92127000D01*
X154873000Y-102947394D01*
G37*
%TD.AperFunction*%
%TD*%
D35*
%TO.N,/N_Out*%
X184873000Y-103947394D02*
X181910197Y-106910197D01*
X181894403Y-106929443D01*
X181882667Y-106951399D01*
X181875440Y-106975224D01*
X181873000Y-107000000D01*
X181873000Y-115373000D01*
X174127000Y-115373000D01*
X174127000Y-104552606D01*
X178589803Y-100089803D01*
X178605597Y-100070557D01*
X178617333Y-100048601D01*
X178624560Y-100024776D01*
X178627000Y-100000000D01*
X178627000Y-92127000D01*
X184873000Y-92127000D01*
X184873000Y-103947394D01*
%TA.AperFunction,Conductor*%
D36*
G36*
X184873000Y-103947394D02*
G01*
X181910197Y-106910197D01*
X181894403Y-106929443D01*
X181882667Y-106951399D01*
X181875440Y-106975224D01*
X181873000Y-107000000D01*
X181873000Y-115373000D01*
X174127000Y-115373000D01*
X174127000Y-104552606D01*
X178589803Y-100089803D01*
X178605597Y-100070557D01*
X178617333Y-100048601D01*
X178624560Y-100024776D01*
X178627000Y-100000000D01*
X178627000Y-92127000D01*
X184873000Y-92127000D01*
X184873000Y-103947394D01*
G37*
%TD.AperFunction*%
%TD*%
M02*
