%TF.GenerationSoftware,KiCad,Pcbnew,(5.1.10)-1*%
%TF.CreationDate,2022-04-20T23:12:05+01:00*%
%TF.ProjectId,EV_Charger2,45565f43-6861-4726-9765-72322e6b6963,rev?*%
%TF.SameCoordinates,Original*%
%TF.FileFunction,Soldermask,Bot*%
%TF.FilePolarity,Negative*%
%FSLAX46Y46*%
G04 Gerber Fmt 4.6, Leading zero omitted, Abs format (unit mm)*
G04 Created by KiCad (PCBNEW (5.1.10)-1) date 2022-04-20 23:12:05*
%MOMM*%
%LPD*%
G01*
G04 APERTURE LIST*
%ADD10R,1.600000X1.600000*%
%ADD11O,1.600000X1.600000*%
%ADD12C,1.600000*%
%ADD13O,2.670000X5.340000*%
%ADD14O,5.850000X2.925000*%
%ADD15C,1.635000*%
%ADD16C,1.000000*%
%ADD17R,1.000000X1.000000*%
%ADD18R,1.620000X1.620000*%
%ADD19C,1.620000*%
%ADD20C,2.350000*%
%ADD21C,1.130000*%
%ADD22R,1.130000X1.130000*%
%ADD23C,3.200000*%
%ADD24O,1.700000X1.700000*%
%ADD25R,1.700000X1.700000*%
%ADD26C,4.500880*%
%ADD27R,1.800000X1.800000*%
%ADD28O,1.800000X1.800000*%
%ADD29C,1.879600*%
%ADD30C,2.030000*%
%ADD31R,2.030000X2.030000*%
%ADD32R,1.200000X1.200000*%
%ADD33C,1.200000*%
G04 APERTURE END LIST*
D10*
%TO.C,D7*%
X203000000Y-24000000D03*
D11*
X210620000Y-24000000D03*
%TD*%
D12*
%TO.C,R12*%
X235750000Y-37750000D03*
D11*
X235750000Y-47910000D03*
%TD*%
D12*
%TO.C,R11*%
X165750000Y-69250000D03*
D11*
X180990000Y-69250000D03*
%TD*%
D13*
%TO.C,K1*%
X181875000Y-95000000D03*
D14*
X163125000Y-98430000D03*
D15*
X177095000Y-82990000D03*
X166935000Y-82990000D03*
%TD*%
D12*
%TO.C,R14*%
X186750000Y-66040000D03*
D11*
X186750000Y-50800000D03*
%TD*%
D12*
%TO.C,R13*%
X193548000Y-66040000D03*
D11*
X193548000Y-50800000D03*
%TD*%
D16*
%TO.C,Q2*%
X189230000Y-85020000D03*
X187960000Y-86290000D03*
D17*
X187960000Y-83750000D03*
%TD*%
D12*
%TO.C,R17*%
X184250000Y-47500000D03*
D11*
X194410000Y-47500000D03*
%TD*%
D12*
%TO.C,R3*%
X184250000Y-43250000D03*
D11*
X194410000Y-43250000D03*
%TD*%
D18*
%TO.C,RV2*%
X160460000Y-22500000D03*
D19*
X163000000Y-22500000D03*
X165540000Y-22500000D03*
%TD*%
D18*
%TO.C,RV1*%
X182960000Y-22500000D03*
D19*
X185500000Y-22500000D03*
X188040000Y-22500000D03*
%TD*%
D20*
%TO.C,F1*%
X131180000Y-72500000D03*
X131180000Y-67420000D03*
X146500000Y-72500000D03*
X146500000Y-67420000D03*
%TD*%
D21*
%TO.C,U3*%
X229490000Y-68445000D03*
X229490000Y-70985000D03*
X229490000Y-73525000D03*
X229490000Y-76065000D03*
X221550000Y-76065000D03*
X221550000Y-73525000D03*
X221550000Y-70985000D03*
D22*
X221550000Y-68445000D03*
%TD*%
D23*
%TO.C,REF\u002A\u002A*%
X137000000Y-33000000D03*
%TD*%
%TO.C,REF\u002A\u002A*%
X225000000Y-22750000D03*
%TD*%
%TO.C,REF\u002A\u002A*%
X209500000Y-105000000D03*
%TD*%
D24*
%TO.C,J3*%
X220540000Y-112000000D03*
D25*
X218000000Y-112000000D03*
%TD*%
D26*
%TO.C,GND*%
X208000000Y-112000000D03*
%TD*%
%TO.C,GND*%
X193000000Y-112000000D03*
%TD*%
%TO.C,N Out*%
X178000000Y-112000000D03*
%TD*%
%TO.C,N In*%
X163000000Y-112000000D03*
%TD*%
%TO.C,L Out*%
X148000000Y-112000000D03*
%TD*%
%TO.C,L In*%
X133000000Y-112000000D03*
%TD*%
D12*
%TO.C,R20*%
X195580000Y-92710000D03*
D11*
X205740000Y-92710000D03*
%TD*%
D12*
%TO.C,R19*%
X147755000Y-22115000D03*
D11*
X147755000Y-32275000D03*
%TD*%
D12*
%TO.C,R18*%
X169980000Y-22115000D03*
D11*
X169980000Y-32275000D03*
%TD*%
D25*
%TO.C,J2*%
X195000000Y-38000000D03*
D24*
X195000000Y-35460000D03*
X195000000Y-32920000D03*
X195000000Y-30380000D03*
%TD*%
D10*
%TO.C,C9*%
X164265000Y-27830000D03*
D12*
X164265000Y-30330000D03*
%TD*%
D10*
%TO.C,C8*%
X185220000Y-29735000D03*
D12*
X185220000Y-27235000D03*
%TD*%
%TO.C,C7*%
X159185000Y-34180000D03*
X161685000Y-34180000D03*
%TD*%
%TO.C,C6*%
X183950000Y-33545000D03*
X181450000Y-33545000D03*
%TD*%
D27*
%TO.C,U6*%
X157915000Y-29100000D03*
D28*
X155375000Y-29100000D03*
X152835000Y-29100000D03*
%TD*%
D27*
%TO.C,U5*%
X176965000Y-27195000D03*
D28*
X176965000Y-29735000D03*
X176965000Y-32275000D03*
%TD*%
D10*
%TO.C,TVS1*%
X203200000Y-106585000D03*
D11*
X203200000Y-96425000D03*
%TD*%
D12*
%TO.C,R16*%
X194310000Y-86995000D03*
D11*
X194310000Y-76835000D03*
%TD*%
D12*
%TO.C,R15*%
X198120000Y-86995000D03*
D11*
X198120000Y-76835000D03*
%TD*%
D12*
%TO.C,R10*%
X191770000Y-106585000D03*
D11*
X191770000Y-96425000D03*
%TD*%
D12*
%TO.C,R9*%
X195580000Y-96425000D03*
D11*
X195580000Y-106585000D03*
%TD*%
D12*
%TO.C,R8*%
X199390000Y-96425000D03*
D11*
X199390000Y-106585000D03*
%TD*%
D12*
%TO.C,R7*%
X235750000Y-50665000D03*
D11*
X235750000Y-60825000D03*
%TD*%
D12*
%TO.C,R6*%
X230765000Y-47365000D03*
D11*
X230765000Y-57525000D03*
%TD*%
D12*
%TO.C,R5*%
X226955000Y-57525000D03*
D11*
X226955000Y-47365000D03*
%TD*%
D12*
%TO.C,R4*%
X229465000Y-79500000D03*
D11*
X219305000Y-79500000D03*
%TD*%
D12*
%TO.C,R2*%
X218035000Y-91940000D03*
D11*
X228195000Y-91940000D03*
%TD*%
D12*
%TO.C,R1*%
X236500000Y-94500000D03*
D11*
X236500000Y-104660000D03*
%TD*%
D29*
%TO.C,U1*%
X213350000Y-27760000D03*
X210810000Y-27760000D03*
X208270000Y-27760000D03*
X205730000Y-27760000D03*
X203190000Y-27760000D03*
X200650000Y-27760000D03*
X211699000Y-41603000D03*
X211699000Y-39063000D03*
X211699000Y-49477000D03*
X211699000Y-52017000D03*
X214620000Y-30300000D03*
X214620000Y-32840000D03*
X214620000Y-35380000D03*
X214620000Y-37920000D03*
X214620000Y-40460000D03*
X214620000Y-43000000D03*
X214620000Y-45540000D03*
X214620000Y-48080000D03*
X214620000Y-50620000D03*
X214620000Y-53160000D03*
X214620000Y-55700000D03*
X214620000Y-58240000D03*
X199380000Y-58240000D03*
X199380000Y-55700000D03*
X199380000Y-53160000D03*
X199380000Y-50620000D03*
X199380000Y-48080000D03*
X199380000Y-45540000D03*
X199380000Y-43000000D03*
X199380000Y-40460000D03*
X199380000Y-37920000D03*
X199380000Y-35380000D03*
X199380000Y-32840000D03*
X199380000Y-30300000D03*
%TD*%
D30*
%TO.C,PS1*%
X176860000Y-61160000D03*
X176860000Y-40840000D03*
X176860000Y-51000000D03*
X131140000Y-61160000D03*
D31*
X131140000Y-40840000D03*
%TD*%
D13*
%TO.C,K2*%
X151875000Y-95000000D03*
D14*
X133125000Y-98430000D03*
D15*
X147095000Y-82990000D03*
X136935000Y-82990000D03*
%TD*%
D10*
%TO.C,U2*%
X226925000Y-103370000D03*
D11*
X219305000Y-95750000D03*
X226925000Y-100830000D03*
X219305000Y-98290000D03*
X226925000Y-98290000D03*
X219305000Y-100830000D03*
X226925000Y-95750000D03*
X219305000Y-103370000D03*
%TD*%
D16*
%TO.C,Q1*%
X189230000Y-79375000D03*
X187960000Y-80645000D03*
D17*
X187960000Y-78105000D03*
%TD*%
D25*
%TO.C,J1*%
X228000000Y-112000000D03*
D24*
X230540000Y-112000000D03*
X233080000Y-112000000D03*
X235620000Y-112000000D03*
%TD*%
D10*
%TO.C,D6*%
X156210000Y-78750000D03*
D11*
X156210000Y-86370000D03*
%TD*%
D10*
%TO.C,D5*%
X159250000Y-76250000D03*
D11*
X159250000Y-83870000D03*
%TD*%
D10*
%TO.C,D4*%
X232505000Y-63365000D03*
D11*
X232505000Y-70985000D03*
%TD*%
D10*
%TO.C,D3*%
X235680000Y-70985000D03*
D11*
X235680000Y-63365000D03*
%TD*%
D10*
%TO.C,D2*%
X231250000Y-90820000D03*
D11*
X231250000Y-83200000D03*
%TD*%
D10*
%TO.C,D1*%
X234250000Y-83200000D03*
D11*
X234250000Y-90820000D03*
%TD*%
D10*
%TO.C,C5*%
X186690000Y-70485000D03*
D12*
X184190000Y-70485000D03*
%TD*%
D10*
%TO.C,C4*%
X193675000Y-70485000D03*
D12*
X191175000Y-70485000D03*
%TD*%
D32*
%TO.C,C3*%
X230500000Y-41000000D03*
D33*
X229000000Y-41000000D03*
%TD*%
D12*
%TO.C,C2*%
X219305000Y-85590000D03*
X219305000Y-88090000D03*
%TD*%
%TO.C,C1*%
X226000000Y-88130000D03*
X228500000Y-88130000D03*
%TD*%
M02*
