M48
; DRILL file {KiCad (5.1.10)-1} date 04/20/22 23:12:51
; FORMAT={-:-/ absolute / inch / decimal}
; #@! TF.CreationDate,2022-04-20T23:12:51+01:00
; #@! TF.GenerationSoftware,Kicad,Pcbnew,(5.1.10)-1
; #@! TF.FileFunction,Plated,1,2,PTH
FMAT,2
INCH
T1C0.0157
T2C0.0236
T3C0.0307
T4C0.0315
T5C0.0354
T6C0.0394
T7C0.0400
T8C0.0429
T9C0.0531
T10C0.0701
T11C0.0768
T12C0.0787
%
G90
G05
T1
X6.7913Y-1.8209
X7.7854Y-2.7657
X7.8346Y-2.6181
X8.4449Y-3.7008
X8.5827Y-3.2677
X8.6024Y-2.4606
X8.6417Y-2.1063
X8.6614Y-2.5197
X8.7008Y-2.3622
X8.7598Y-2.4213
X8.7598Y-3.1496
X8.7795Y-3.563
X8.8091Y-1.7323
X8.878Y-2.1063
X9.2126Y-2.1063
X9.3504Y-3.0315
T2
X7.4Y-3.075
X7.4Y-3.175
X7.4Y-3.2972
X7.4Y-3.3972
X7.45Y-3.125
X7.45Y-3.3472
X9.0157Y-1.6142
X9.0748Y-1.6142
T3
X8.7224Y-2.6947
X8.7224Y-2.7947
X8.7224Y-2.8947
X8.7224Y-2.9947
X9.035Y-2.6947
X9.035Y-2.7947
X9.035Y-2.8947
X9.035Y-2.9947
T4
X5.8171Y-0.8707
X5.8171Y-1.2707
X6.15Y-3.1004
X6.15Y-3.4004
X6.2671Y-1.3457
X6.2697Y-3.002
X6.2697Y-3.302
X6.3656Y-1.3457
X6.4671Y-1.0957
X6.4671Y-1.1941
X6.5256Y-2.7264
X6.6921Y-0.8707
X6.6921Y-1.2707
X7.1256Y-2.7264
X7.1437Y-1.3207
X7.2421Y-1.3207
X7.2516Y-2.775
X7.2539Y-1.7028
X7.2539Y-1.8701
X7.2921Y-1.0722
X7.2921Y-1.1707
X7.35Y-2.775
X7.3524Y-2.0
X7.3524Y-2.6
X7.5266Y-2.775
X7.55Y-3.7963
X7.55Y-4.1963
X7.62Y-2.0
X7.62Y-2.6
X7.625Y-2.775
X7.65Y-3.025
X7.65Y-3.425
X7.6539Y-1.7028
X7.6539Y-1.8701
X7.7Y-3.65
X7.7Y-3.7963
X7.7Y-4.1963
X7.8Y-3.025
X7.8Y-3.425
X7.85Y-3.7963
X7.85Y-4.1963
X7.9921Y-0.9449
X8.0Y-3.7963
X8.0Y-4.1963
X8.1Y-3.65
X8.2921Y-0.9449
X8.5841Y-3.6197
X8.6341Y-3.1299
X8.6341Y-3.3697
X8.6341Y-3.4681
X8.6341Y-3.7697
X8.6341Y-3.8697
X8.6341Y-3.9697
X8.6341Y-4.0697
X8.8976Y-3.4697
X8.9341Y-3.7697
X8.9341Y-3.8697
X8.9341Y-3.9697
X8.9341Y-4.0697
X8.9352Y-1.8648
X8.9352Y-2.2648
X8.9841Y-3.6197
X8.9961Y-3.4697
X9.0341Y-3.1299
X9.0852Y-1.8648
X9.0852Y-2.2648
X9.1043Y-3.2756
X9.1043Y-3.5756
X9.1537Y-2.4947
X9.1537Y-2.7947
X9.2224Y-3.2756
X9.2224Y-3.5756
X9.2787Y-2.4947
X9.2787Y-2.7947
X9.2815Y-1.4862
X9.2815Y-1.8862
X9.2815Y-1.9947
X9.2815Y-2.3947
X9.311Y-3.7205
X9.311Y-4.1205
T5
X6.3173Y-0.8858
X6.4173Y-0.8858
X6.5173Y-0.8858
X7.2031Y-0.8858
X7.3031Y-0.8858
X7.4031Y-0.8858
T6
X6.0171Y-1.1457
X6.1171Y-1.1457
X6.2171Y-1.1457
X6.9671Y-1.0707
X6.9671Y-1.1707
X6.9671Y-1.2707
X7.6772Y-1.1961
X7.6772Y-1.2961
X7.6772Y-1.3961
X7.6772Y-1.4961
X8.5827Y-4.4094
X8.6827Y-4.4094
X8.9764Y-4.4094
X9.0764Y-4.4094
X9.1764Y-4.4094
X9.2764Y-4.4094
T7
X7.8496Y-1.1929
X7.8496Y-1.2929
X7.8496Y-1.3929
X7.8496Y-1.4929
X7.8496Y-1.5929
X7.8496Y-1.6929
X7.8496Y-1.7929
X7.8496Y-1.8929
X7.8496Y-1.9929
X7.8496Y-2.0929
X7.8496Y-2.1929
X7.8496Y-2.2929
X7.8996Y-1.0929
X7.9996Y-1.0929
X8.0996Y-1.0929
X8.1996Y-1.0929
X8.2996Y-1.0929
X8.3346Y-1.5379
X8.3346Y-1.6379
X8.3346Y-1.9479
X8.3346Y-2.0479
X8.3996Y-1.0929
X8.4496Y-1.1929
X8.4496Y-1.2929
X8.4496Y-1.3929
X8.4496Y-1.4929
X8.4496Y-1.5929
X8.4496Y-1.6929
X8.4496Y-1.7929
X8.4496Y-1.8929
X8.4496Y-1.9929
X8.4496Y-2.0929
X8.4496Y-2.1929
X8.4496Y-2.2929
T8
X5.3911Y-3.2673
X5.7911Y-3.2673
X6.5722Y-3.2673
X6.9722Y-3.2673
T9
X5.163Y-1.6079
X5.163Y-2.4079
X5.1646Y-2.6543
X5.1646Y-2.8543
X5.7677Y-2.6543
X5.7677Y-2.8543
X6.963Y-1.6079
X6.963Y-2.0079
X6.963Y-2.4079
T12
X5.2362Y-4.4094
X5.8268Y-4.4094
X6.4173Y-4.4094
X7.0079Y-4.4094
X7.5984Y-4.4094
X8.189Y-4.4094
T10
G00X5.9793Y-3.7707
M15
G01X5.9793Y-3.7096
M16
G05
G00X7.1604Y-3.7707
M15
G01X7.1604Y-3.7096
M16
G05
T11
G00X5.2815Y-3.8752
M15
G01X5.2008Y-3.8752
M16
G05
G00X6.4626Y-3.8752
M15
G01X6.3819Y-3.8752
M16
G05
T0
M30
